# xmcd CD database file
#
# Track frame offsets:
#	150
#	16200
#	32175
#	46350
#	71100
#	99300
#	130656
#	150827
#
# Disc length: 2546 seconds
#
# Revision: 0
# Processed by: cddbd v1.5.2PL0 Copyright (c) Steve Scherf et al.
# Submitted via: CDex 1.70beta2
#
DISCID=5a09f008
DTITLE=Filser Bluesband - One for the Money
DYEAR=1900
DGENRE=Blues
TTITLE0=Guitarman
TTITLE1=Look to the sky
TTITLE2=Teleparty
TTITLE3=What in the world...?
TTITLE4=I need you
TTITLE5=Two of a kind
TTITLE6=Just ride on
TTITLE7=Panama
EXTD=
EXTT0=
EXTT1=
EXTT2=
EXTT3=
EXTT4=
EXTT5=
EXTT6=
EXTT7=
PLAYORDER=
